{"title":"Sacrifice.2011.DVDSCR.AC3.XViD-IMAGiNE","uid":6174670,"size":1472774376,"categoryP":"video","categoryS":"movies","magnet":"?xt=urn:btih:a4d0781aa41842231e32b27dbe9fcdee2e0c1361&amp;dn=Sacrifice.2011.DVDSCR.AC3.XViD-IMAGiNE&amp;tr=udp%3A%2F%2Ftracker.openbittorrent.com%3A80&amp;tr=udp%3A%2F%2Fopen.demonii.com%3A1337&amp;tr=udp%3A%2F%2Ftracker.coppersurfer.tk%3A6969&amp;tr=udp%3A%2F%2Fexodus.desync.com%3A6969","seeders":0,"leechers":0,"uploader":"sceneline","files":103,"time":1297727118,"description":"- &lt;a href=&quot;\nhttp://www.torrentkit.com&quot; rel=&quot;nofollow&quot; target=&quot;_NEW&quot;&gt;\nhttp://www.torrentkit.com&lt;/a&gt;  \n\nwho care what we share! support us by seeding back,\nand don't forget to visit www.torrentkit.com\n-[pre]  \n    *********** ****    ****      ***      ******** *********** ****    *** **********\n           *+*     +*+*+* *+*+*+   *+* *+*   *+*    *+*    *+*     *+*+*   *+* *+*        \n           +*+     +*+ +*+*+ +*+  +*+   +*+  +*+           +*+     *+*+*+  +*+ +*+        \n           +$+     +$+  +*+  +$+ +$++*++$++* *$*           +$+     +$+ +*+ +$+ +$++*++$  \n           +$+     +$+       +$+ +$+     +$+ +$+   +$+$    +$+     +$+  +$+$+$ +$+        \n           $+$     $+$       $+$ $+$     $+$ $+$    $+$    $+$     $+$   $+$+$ $+$        \n       $$$$$$$$$$$ $$$       $$$ $$$     $$$  $$$$$$$$ $$$$$$$$$$$ $$$    $$$$ $$$$$$$$$$     \n                                                \n\n\n\n                           Another Fine Release Brought to you from - IMAGiNE                   \n                                                 \n\n********************************************************************************************************************                                \n                                     Sacrifice DVDSCR AC3 XViD - IMAGiNE\n********************************************************************************************************************\n\nRipper ...........:IMAGiNE                                        IMDB Rating.......:n/a                             \nVideo Codec.......:XVID                                           Release Date......:14/02/11\nAudio Codec.......:AC-3                                           Theatre Date......:n/a\nAudio Bitrate.....:192                                            Runtime...........:1h 39mn\nSubtitles.........:NIL                                            Language..........:ENGLISH\nResolution........:720 x 384                                      IMDb URL..........:http://www.imdb.com/title/tt1630564/\n\n\n[color=yellow]DETAILS:[/color]\n\nVideo\nID                               : 0\nFormat                           : MPEG-4 Visual\nFormat profile                   : Advanced Simple@L5\nFormat settings, BVOP            : Yes\nFormat settings, QPel            : No\nFormat settings, GMC             : No warppoints\nFormat settings, Matrix          : Default (MPEG)\nMuxing mode                      : Packed bitstream\nCodec ID                         : XVID\nCodec ID/Hint                    : XviD\nDuration                         : 1h 39mn\nBit rate                         : 1 781 Kbps\nWidth                            : 720 pixels\nHeight                           : 384 pixels\nDisplay aspect ratio             : 1.875\nFrame rate                       : 23.976 fps\nColor space                      : YUV\nChroma subsampling               : 4:2:0\nBit depth                        : 8 bits\nScan type                        : Progressive\nBits/(Pixel*Frame)               : 0.269\nStream size                      : 1.24 GiB (90%)\nWriting library                  : XviD 1.2.1 (UTC 2008-12-04)\n\nAudio\nID                               : 1\nFormat                           : AC-3\nFormat/Info                      : Audio Coding 3\nMode extension                   : CM (complete main)\nCodec ID                         : 2000\nDuration                         : 1h 39mn\nBit rate mode                    : Constant\nBit rate                         : 192 Kbps\nChannel(s)                       : 2 channels\nSampling rate                    : 48.0 KHz\nBit depth                        : 16 bits\nStream size                      : 137 MiB (10%)\nAlignment                        : Aligned on interleaves\nInterleave, duration             : 42 ms (1.00 video frame)\nInterleave, preload duration     : 512 ms\n\n\n[color=yellow]SOURCES:[/color]\n\nVIDEO: peeraccess... Thanks\nAUDIO: peeraccess... Thanks\n\n[color=yellow]NOTES:[/color]\n\nIMAGiNE bringing you another release..........Sacrifice 2011....\n\nHere we are with our encode of this movie for you all.. Now for the video we just made a script\ncontaining white balance, rgb eq, sharpness, chroma, brightness, contrast etc.\nWith the audio it was just a acase of muxing the audio back to our encode...\n\nEnjoy ;)\n\n[color=yellow]SCREENS:[/color]\n\n[IMG]http://img443.imageshack.us/img443/8083/bscap0001um.jpg[/IMG]\n[IMG]http://img827.imageshack.us/img827/6914/bscap0003sf.jpg[/IMG]\n[IMG]http://img41.imageshack.us/img41/7474/bscap0004ke.jpg[/IMG]\n[IMG]http://img811.imageshack.us/img811/5206/bscap0006xb.jpg[/IMG]\n[IMG]http://img832.imageshack.us/img832/2624/bscap0007g.jpg[/IMG]\n[IMG]http://img717.imageshack.us/img717/7966/bscap0008cj.jpg[/IMG]\n\n\n[color=yellow]GREETS:[/color]\n\nFLAWL3SS,ViSiON,FUSiON,Rx,SecretMyth,BirdFlu,ELEKTRI4KA,SERENiTY and Autotron\nAnd to all the other p2p grps past and present \n\n[COLOR=RED]Looking for these,syncers,cammers,audio,silver supplier.....Have anything to offer????......\nContact us &lt;a class=&quot;__cf_email__&quot; href=&quot;/cdn-cgi/l/email-protection&quot; data-cfemail=&quot;3f56525e5856515a584d504a4f7f574a4c57525e5653115c5052&quot;&gt;[email&amp;#160;protected]&lt;/a&gt;&lt;script cf-hash='f9e31' type=&quot;text/javascript&quot;&gt;\n/* &lt;![CDATA[ */!function(){try{var t=&quot;currentScript&quot;in document?document.currentScript:function(){for(var t=document.getElementsByTagName(&quot;script&quot;),e=t.length;e--;)if(t[e].getAttribute(&quot;cf-hash&quot;))return t[e]}();if(t&amp;&amp;t.previousSibling){var e,r,n,i,c=t.previousSibling,a=c.getAttribute(&quot;data-cfemail&quot;);if(a){for(e=&quot;&quot;,r=parseInt(a.substr(0,2),16),n=2;a.length-n;n+=2)i=parseInt(a.substr(n,2),16)^r,e+=String.fromCharCode(i);e=document.createTextNode(e),c.parentNode.replaceChild(e,c)}}}catch(u){}}();/* ]]&gt; */&lt;/script&gt;[/COLOR]","torrent":{"xt":"urn:btih:a4d0781aa41842231e32b27dbe9fcdee2e0c1361","amp;dn":"Sacrifice.2011.DVDSCR.AC3.XViD-IMAGiNE","amp;tr":["udp%3A%2F%2Ftracker.openbittorrent.com%3A80","udp%3A%2F%2Fopen.demonii.com%3A1337","udp%3A%2F%2Ftracker.coppersurfer.tk%3A6969","udp%3A%2F%2Fexodus.desync.com%3A6969"],"infoHash":"a4d0781aa41842231e32b27dbe9fcdee2e0c1361","infoHashBuffer":{"type":"Buffer","data":[164,208,120,26,164,24,66,35,30,50,178,125,190,159,205,238,46,12,19,97]},"announce":[],"urlList":[]}}